<svg viewBox="0 0 425 293" fill="none" xmlns="http://www.w3.org/2000/svg">
<circle cx="226.176" cy="154.641" r="127.29" fill="#EAEEF9"/>
<rect x="330.322" y="16.8315" width="6.31188" height="42.0792" rx="3.15594" fill="url(#paint0_linear_215_17750)"/>
<rect x="401.926" y="84.6382" width="6.31188" height="42.0792" rx="3.15594" transform="rotate(90.6534 401.926 84.6382)" fill="url(#paint1_linear_215_17750)"/>
<rect x="385.226" y="31.5596" width="6.31188" height="42.0792" rx="3.15594" transform="rotate(44.8104 385.226 31.5596)" fill="url(#paint2_linear_215_17750)"/>
<path d="M103.094 88.3665C103.094 83.7186 106.862 79.9507 111.51 79.9507H334.53C339.178 79.9507 342.946 83.7186 342.946 88.3665V98.8863H103.094V88.3665Z" fill="url(#paint3_linear_215_17750)"/>
<path d="M103.094 98.8862H342.946V233.54C342.946 238.188 339.178 241.956 334.53 241.956H111.51C106.862 241.956 103.094 238.188 103.094 233.54V98.8862Z" fill="url(#paint4_linear_215_17750)"/>
<circle cx="191.46" cy="147.278" r="6.31188" fill="url(#paint5_linear_215_17750)"/>
<circle cx="256.683" cy="147.278" r="6.31188" fill="url(#paint6_linear_215_17750)"/>
<rect x="206.188" y="187.253" width="35.7673" height="12.6238" rx="6.31188" fill="url(#paint7_linear_215_17750)"/>
<circle cx="105.198" cy="63.119" r="6.31188" fill="#EAEEF9"/>
<circle cx="355.569" cy="21.0399" r="6.31188" fill="#EAEEF9"/>
<circle cx="71.5349" cy="189.356" r="12.6238" fill="#EAEEF9"/>
<circle cx="115.718" cy="90.4706" r="4.20792" fill="white"/>
<circle cx="130.446" cy="90.4706" r="4.20792" fill="white"/>
<circle cx="145.173" cy="90.4706" r="4.20792" fill="white"/>
<defs>
<linearGradient id="paint0_linear_215_17750" x1="330.319" y1="36.9411" x2="336.635" y2="36.9411" gradientUnits="userSpaceOnUse">
<stop stop-color="#E53D00"/>
<stop offset="1" stop-color="#E53D00" stop-opacity="0.5"/>
</linearGradient>
<linearGradient id="paint1_linear_215_17750" x1="401.924" y1="104.748" x2="408.24" y2="104.748" gradientUnits="userSpaceOnUse">
<stop stop-color="#E53D00"/>
<stop offset="1" stop-color="#E53D00" stop-opacity="0.5"/>
</linearGradient>
<linearGradient id="paint2_linear_215_17750" x1="385.224" y1="51.6691" x2="391.539" y2="51.6691" gradientUnits="userSpaceOnUse">
<stop stop-color="#E53D00"/>
<stop offset="1" stop-color="#E53D00" stop-opacity="0.5"/>
</linearGradient>
<linearGradient id="paint3_linear_215_17750" x1="103" y1="89" x2="343" y2="89" gradientUnits="userSpaceOnUse">
<stop stop-color="#E53D00"/>
<stop offset="1" stop-color="#E53D00" stop-opacity="0.5"/>
</linearGradient>
<linearGradient id="paint4_linear_215_17750" x1="223.02" y1="98.8862" x2="205.136" y2="434.468" gradientUnits="userSpaceOnUse">
<stop stop-color="white"/>
<stop offset="0.563886" stop-color="#CED7E4"/>
</linearGradient>
<linearGradient id="paint5_linear_215_17750" x1="185.143" y1="146.999" x2="197.775" y2="146.999" gradientUnits="userSpaceOnUse">
<stop stop-color="#E53D00"/>
<stop offset="1" stop-color="#E53D00" stop-opacity="0.5"/>
</linearGradient>
<linearGradient id="paint6_linear_215_17750" x1="250.366" y1="146.999" x2="262.998" y2="146.999" gradientUnits="userSpaceOnUse">
<stop stop-color="#E53D00"/>
<stop offset="1" stop-color="#E53D00" stop-opacity="0.5"/>
</linearGradient>
<linearGradient id="paint7_linear_215_17750" x1="206.174" y1="193.286" x2="241.963" y2="193.286" gradientUnits="userSpaceOnUse">
<stop stop-color="#E53D00"/>
<stop offset="1" stop-color="#E53D00" stop-opacity="0.5"/>
</linearGradient>
</defs>
</svg>
