<svg xmlns="http://www.w3.org/2000/svg" width="1280" height="600" viewBox="0 0 1280 600" fill="none">
  <path opacity="0.8" fill-rule="evenodd" clip-rule="evenodd" d="M63.117 -485.932H-31.8753V-389.887H63.117V-485.932ZM63.117 -487H64.185H159.174H160.242H255.234H256.302H351.291H352.359H447.35H448.418H543.408H544.476H639.465H640.533H735.525H736.593H831.582H832.65H927.64H928.71H1023.7H1024.77H1119.76H1120.83H1215.82H1216.88H1311.87H1312.94H1407.93H1409V-485.932V-389.887V-388.819V-292.774V-291.706V-195.662V-194.594V-98.5488V-97.4807V-1.43604V-0.367981V95.6768V96.7448V192.79V193.858V289.902V290.97V387.015V388.083V484.128V485.196V581.241V582.309V620.726H1407.93V582.309H1312.94V620.726H1311.87V582.309H1216.88V620.726H1215.82V582.309H1120.83V620.726H1119.76V582.309H1024.77V620.726H1023.7V582.309H928.71V620.726H927.64V582.309H832.65V620.726H831.582V582.309H736.593V620.726H735.525V582.309H640.533V620.726H639.465V582.309H544.476V620.726H543.408V582.309H448.418V620.726H447.35V582.309H352.359V620.726H351.291V582.309H256.302V620.726H255.234V582.309H160.242V620.726H159.174V582.309H64.185V620.726H63.117V582.309H-31.8753V620.726H-32.9434V582.309H-127.932V620.726H-129V582.309V581.241V485.196V484.128V388.083V387.015V290.97V289.902V193.858V192.79V96.7448V95.6768V-0.367981V-1.43604V-97.4807V-98.5488V-194.594V-195.662V-291.706V-292.774V-388.819V-389.887V-485.932V-487H-127.932H-32.9434H-31.8753H63.117ZM1407.93 581.241V485.196H1312.94V581.241H1407.93ZM1407.93 484.128V388.083H1312.94V484.128H1407.93ZM1407.93 387.015V290.97H1312.94V387.015H1407.93ZM1407.93 289.902V193.858H1312.94V289.902H1407.93ZM1407.93 192.79V96.7448H1312.94V192.79H1407.93ZM1407.93 95.6768V-0.367981H1312.94V95.6768H1407.93ZM1407.93 -1.43604V-97.4807H1312.94V-1.43604H1407.93ZM1407.93 -98.5488V-194.594H1312.94V-98.5488H1407.93ZM1407.93 -195.662V-291.706H1312.94V-195.662H1407.93ZM1407.93 -292.774V-388.819H1312.94V-292.774H1407.93ZM1407.93 -389.887V-485.932H1312.94V-389.887H1407.93ZM1216.88 -485.932H1311.87V-389.887H1216.88V-485.932ZM1216.88 -388.819H1311.87V-292.774H1216.88V-388.819ZM1216.88 -291.706H1311.87V-195.662H1216.88V-291.706ZM1216.88 -194.594H1311.87V-98.5488H1216.88V-194.594ZM1216.88 -97.4807H1311.87V-1.43604H1216.88V-97.4807ZM1216.88 -0.367981H1311.87V95.6768H1216.88V-0.367981ZM1216.88 96.7448H1311.87V192.79H1216.88V96.7448ZM1216.88 193.858H1311.87V289.902H1216.88V193.858ZM1216.88 290.97H1311.87V387.015H1216.88V290.97ZM1216.88 388.083H1311.87V484.128H1216.88V388.083ZM1216.88 485.196H1311.87V581.241H1216.88V485.196ZM1215.82 581.241V485.196H1120.83V581.241H1215.82ZM1215.82 484.128V388.083H1120.83V484.128H1215.82ZM1215.82 387.015V290.97H1120.83V387.015H1215.82ZM1215.82 289.902V193.858H1120.83V289.902H1215.82ZM1215.82 192.79V96.7448H1120.83V192.79H1215.82ZM1215.82 95.6768V-0.367981H1120.83V95.6768H1215.82ZM1215.82 -1.43604V-97.4807H1120.83V-1.43604H1215.82ZM1215.82 -98.5488V-194.594H1120.83V-98.5488H1215.82ZM1215.82 -195.662V-291.706H1120.83V-195.662H1215.82ZM1215.82 -292.774V-388.819H1120.83V-292.774H1215.82ZM1215.82 -389.887V-485.932H1120.83V-389.887H1215.82ZM1024.77 -485.932H1119.76V-389.887H1024.77V-485.932ZM1024.77 -388.819H1119.76V-292.774H1024.77V-388.819ZM1024.77 -291.706H1119.76V-195.662H1024.77V-291.706ZM1024.77 -194.594H1119.76V-98.5488H1024.77V-194.594ZM1024.77 -97.4807H1119.76V-1.43604H1024.77V-97.4807ZM1024.77 -0.367981H1119.76V95.6768H1024.77V-0.367981ZM1024.77 96.7448H1119.76V192.79H1024.77V96.7448ZM1024.77 193.858H1119.76V289.902H1024.77V193.858ZM1024.77 290.97H1119.76V387.015H1024.77V290.97ZM1024.77 388.083H1119.76V484.128H1024.77V388.083ZM1024.77 485.196H1119.76V581.241H1024.77V485.196ZM1023.7 581.241V485.196H928.71V581.241H1023.7ZM1023.7 484.128V388.083H928.71V484.128H1023.7ZM1023.7 387.015V290.97H928.71V387.015H1023.7ZM1023.7 289.902V193.858H928.71V289.902H1023.7ZM1023.7 192.79V96.7448H928.71V192.79H1023.7ZM1023.7 95.6768V-0.367981H928.71V95.6768H1023.7ZM1023.7 -1.43604V-97.4807H928.71V-1.43604H1023.7ZM1023.7 -98.5488V-194.594H928.71V-98.5488H1023.7ZM1023.7 -195.662V-291.706H928.71V-195.662H1023.7ZM1023.7 -292.774V-388.819H928.71V-292.774H1023.7ZM1023.7 -389.887V-485.932H928.71V-389.887H1023.7ZM832.65 -485.932H927.64V-389.887H832.65V-485.932ZM832.65 -388.819H927.64V-292.774H832.65V-388.819ZM832.65 -291.706H927.64V-195.662H832.65V-291.706ZM832.65 -194.594H927.64V-98.5488H832.65V-194.594ZM832.65 -97.4807H927.64V-1.43604H832.65V-97.4807ZM832.65 -0.367981H927.64V95.6768H832.65V-0.367981ZM832.65 96.7448H927.64V192.79H832.65V96.7448ZM832.65 193.858H927.64V289.902H832.65V193.858ZM832.65 290.97H927.64V387.015H832.65V290.97ZM832.65 388.083H927.64V484.128H832.65V388.083ZM832.65 485.196H927.64V581.241H832.65V485.196ZM831.582 581.241V485.196H736.593V581.241H831.582ZM831.582 484.128V388.083H736.593V484.128H831.582ZM831.582 387.015V290.97H736.593V387.015H831.582ZM831.582 289.902V193.858H736.593V289.902H831.582ZM831.582 192.79V96.7448H736.593V192.79H831.582ZM831.582 95.6768V-0.367981H736.593V95.6768H831.582ZM831.582 -1.43604V-97.4807H736.593V-1.43604H831.582ZM831.582 -98.5488V-194.594H736.593V-98.5488H831.582ZM831.582 -195.662V-291.706H736.593V-195.662H831.582ZM831.582 -292.774V-388.819H736.593V-292.774H831.582ZM831.582 -389.887V-485.932H736.593V-389.887H831.582ZM640.533 -485.932H735.525V-389.887H640.533V-485.932ZM640.533 -388.819H735.525V-292.774H640.533V-388.819ZM640.533 -291.706H735.525V-195.662H640.533V-291.706ZM640.533 -194.594H735.525V-98.5488H640.533V-194.594ZM640.533 -97.4807H735.525V-1.43604H640.533V-97.4807ZM640.533 -0.367981H735.525V95.6768H640.533V-0.367981ZM640.533 96.7448H735.525V192.79H640.533V96.7448ZM640.533 193.858H735.525V289.902H640.533V193.858ZM640.533 290.97H735.525V387.015H640.533V290.97ZM640.533 388.083H735.525V484.128H640.533V388.083ZM640.533 485.196H735.525V581.241H640.533V485.196ZM639.465 581.241V485.196H544.476V581.241H639.465ZM639.465 484.128V388.083H544.476V484.128H639.465ZM639.465 387.015V290.97H544.476V387.015H639.465ZM639.465 289.902V193.858H544.476V289.902H639.465ZM639.465 192.79V96.7448H544.476V192.79H639.465ZM639.465 95.6768V-0.367981H544.476V95.6768H639.465ZM639.465 -1.43604V-97.4807H544.476V-1.43604H639.465ZM639.465 -98.5488V-194.594H544.476V-98.5488H639.465ZM639.465 -195.662V-291.706H544.476V-195.662H639.465ZM639.465 -292.774V-388.819H544.476V-292.774H639.465ZM639.465 -389.887V-485.932H544.476V-389.887H639.465ZM448.418 -485.932H543.408V-389.887H448.418V-485.932ZM448.418 -388.819H543.408V-292.774H448.418V-388.819ZM448.418 -291.706H543.408V-195.662H448.418V-291.706ZM448.418 -194.594H543.408V-98.5488H448.418V-194.594ZM448.418 -97.4807H543.408V-1.43604H448.418V-97.4807ZM448.418 -0.367981H543.408V95.6768H448.418V-0.367981ZM448.418 96.7448H543.408V192.79H448.418V96.7448ZM448.418 193.858H543.408V289.902H448.418V193.858ZM448.418 290.97H543.408V387.015H448.418V290.97ZM448.418 388.083H543.408V484.128H448.418V388.083ZM448.418 485.196H543.408V581.241H448.418V485.196ZM447.35 581.241V485.196H352.359V581.241H447.35ZM447.35 484.128V388.083H352.359V484.128H447.35ZM447.35 387.015V290.97H352.359V387.015H447.35ZM447.35 289.902V193.858H352.359V289.902H447.35ZM447.35 192.79V96.7448H352.359V192.79H447.35ZM447.35 95.6768V-0.367981H352.359V95.6768H447.35ZM447.35 -1.43604V-97.4807H352.359V-1.43604H447.35ZM447.35 -98.5488V-194.594H352.359V-98.5488H447.35ZM447.35 -195.662V-291.706H352.359V-195.662H447.35ZM447.35 -292.774V-388.819H352.359V-292.774H447.35ZM447.35 -389.887V-485.932H352.359V-389.887H447.35ZM256.302 -485.932H351.291V-389.887H256.302V-485.932ZM256.302 -388.819H351.291V-292.774H256.302V-388.819ZM256.302 -291.706H351.291V-195.662H256.302V-291.706ZM256.302 -194.594H351.291V-98.5488H256.302V-194.594ZM256.302 -97.4807H351.291V-1.43604H256.302V-97.4807ZM256.302 -0.367981H351.291V95.6768H256.302V-0.367981ZM256.302 96.7448H351.291V192.79H256.302V96.7448ZM256.302 193.858H351.291V289.902H256.302V193.858ZM256.302 290.97H351.291V387.015H256.302V290.97ZM256.302 388.083H351.291V484.128H256.302V388.083ZM256.302 485.196H351.291V581.241H256.302V485.196ZM255.234 581.241V485.196H160.242V581.241H255.234ZM255.234 484.128V388.083H160.242V484.128H255.234ZM255.234 387.015V290.97H160.242V387.015H255.234ZM255.234 289.902V193.858H160.242V289.902H255.234ZM255.234 192.79V96.7448H160.242V192.79H255.234ZM255.234 95.6768V-0.367981H160.242V95.6768H255.234ZM255.234 -1.43604V-97.4807H160.242V-1.43604H255.234ZM255.234 -98.5488V-194.594H160.242V-98.5488H255.234ZM255.234 -195.662V-291.706H160.242V-195.662H255.234ZM255.234 -292.774V-388.819H160.242V-292.774H255.234ZM255.234 -389.887V-485.932H160.242V-389.887H255.234ZM64.185 -485.932H159.174V-389.887H64.185V-485.932ZM64.185 -388.819H159.174V-292.774H64.185V-388.819ZM64.185 -291.706H159.174V-195.662H64.185V-291.706ZM64.185 -194.594H159.174V-98.5488H64.185V-194.594ZM64.185 -97.4807H159.174V-1.43604H64.185V-97.4807ZM64.185 -0.367981H159.174V95.6768H64.185V-0.367981ZM64.185 96.7448H159.174V192.79H64.185V96.7448ZM64.185 193.858H159.174V289.902H64.185V193.858ZM64.185 290.97H159.174V387.015H64.185V290.97ZM64.185 388.083H159.174V484.128H64.185V388.083ZM64.185 485.196H159.174V581.241H64.185V485.196ZM63.117 581.241V485.196H-31.8753V581.241H63.117ZM63.117 484.128V388.083H-31.8753V484.128H63.117ZM63.117 387.015V290.97H-31.8753V387.015H63.117ZM63.117 289.902V193.858H-31.8753V289.902H63.117ZM63.117 192.79V96.7448H-31.8753V192.79H63.117ZM63.117 95.6768V-0.367981H-31.8753V95.6768H63.117ZM63.117 -1.43604V-97.4807H-31.8753V-1.43604H63.117ZM63.117 -98.5488V-194.594H-31.8753V-98.5488H63.117ZM63.117 -195.662V-291.706H-31.8753V-195.662H63.117ZM63.117 -292.774V-388.819H-31.8753V-292.774H63.117ZM-127.932 -485.932H-32.9434V-389.887H-127.932V-485.932ZM-127.932 -388.819H-32.9434V-292.774H-127.932V-388.819ZM-127.932 -291.706H-32.9434V-195.662H-127.932V-291.706ZM-127.932 -194.594H-32.9434V-98.5488H-127.932V-194.594ZM-127.932 -97.4807H-32.9434V-1.43604H-127.932V-97.4807ZM-127.932 -0.367981H-32.9434V95.6768H-127.932V-0.367981ZM-127.932 96.7448H-32.9434V192.79H-127.932V96.7448ZM-127.932 193.858H-32.9434V289.902H-127.932V193.858ZM-127.932 290.97H-32.9434V387.015H-127.932V290.97ZM-127.932 388.083H-32.9434V484.128H-127.932V388.083ZM-127.932 485.196H-32.9434V581.241H-127.932V485.196Z" fill="url(#paint0_radial_319_12976)"/>
  <defs>
    <radialGradient id="paint0_radial_319_12976" cx="0" cy="0" r="1" gradientUnits="userSpaceOnUse" gradientTransform="translate(640 -125.228) rotate(90) scale(745.954 1035.71)">
      <stop stop-color="#C0C7FA"/>
      <stop offset="1" stop-color="#D7E0ED" stop-opacity="0"/>
    </radialGradient>
  </defs>
</svg>